# Blender v3.3.0 OBJ File: 'PropsDeepUnder.blend'
# www.blender.org
o BloodSplash01.007_Plane.096
v 3.028961 -0.863387 5.751794
v 0.905565 -0.555668 13.974375
v 11.139046 -0.630645 7.448025
v 9.138176 -0.811320 15.944996
v 6.900501 -0.882841 6.577490
v 5.095522 -0.555668 14.957405
v 4.966605 -0.555668 6.085975
v 1.888596 -0.906066 9.618859
v 7.190501 -0.561834 15.548159
v 10.268511 -0.788711 11.607529
v 9.315069 -0.869474 7.227513
v 3.000544 -0.555668 14.465889
v 6.078553 -0.555668 10.767447
v 4.121253 -0.761365 10.275932
v 8.173532 -0.697405 11.133605
v 4.031765 -0.631451 5.952867
v 1.397080 -0.742343 12.013410
v 8.127901 -0.618156 15.698088
v 10.652525 -0.604722 9.655498
v 8.109074 -1.056156 6.823247
v 4.048034 -0.555668 14.711647
v 6.426576 -0.791535 8.672468
v 5.890500 -0.688256 6.331732
v 2.380111 -0.556771 7.781048
v 6.143012 -0.607487 15.311196
v 9.611704 -0.904687 13.845456
v 10.317875 -0.637538 7.428585
v 1.953054 -0.555668 14.220132
v 5.487071 -0.565615 12.762458
v 5.046051 -0.555729 10.536676
v 2.936085 -0.951718 9.855822
v 4.475090 -0.608202 8.072782
v 3.492059 -0.555668 12.370909
v 9.221022 -0.743058 11.370568
v 7.126041 -0.555668 11.013205
v 8.768151 -0.581902 9.267089
v 7.682016 -0.951004 13.528155
v 6.488728 -0.803509 13.108183
v 7.617558 -0.809842 9.065245
v 9.712536 -0.555668 9.409740
v 2.444569 -0.696691 12.250372
v 3.427600 -0.562549 7.835820
v 5.416575 -0.596951 8.426711
v 4.539549 -0.555668 12.616668
v 8.729506 -0.905351 13.765118
v 3.530364 -0.747419 5.852331
v 1.151323 -0.556068 12.981565
v 8.633039 -0.714738 15.821541
v 10.889486 -0.650374 8.608009
v 7.405501 -0.980133 6.700368
v 4.571777 -0.555668 14.834526
v 6.663538 -0.837188 7.624979
v 5.385499 -0.590964 6.208853
v 2.134353 -0.711481 8.608858
v 6.666757 -0.584661 15.429676
v 10.022753 -0.983295 12.617531
v 9.816471 -0.753506 7.328049
v 2.476799 -0.555668 14.343011
v 5.832795 -0.555668 11.814937
v 5.554808 -0.555668 10.644567
v 3.616253 -0.858658 10.153053
v 4.720847 -0.555668 7.133463
v 3.846794 -0.612388 11.432399
v 9.744766 -0.765884 11.489049
v 7.538197 -0.625948 11.024494
v 9.041611 -0.725688 8.247298
v 7.927774 -0.891990 12.143606
v 4.442860 -0.555668 5.963095
v 1.642838 -0.936928 11.003407
v 7.714246 -0.555692 15.585026
v 10.514269 -0.594126 10.597529
v 8.813667 -0.985443 7.126976
v 3.524289 -0.555668 14.588768
v 6.324310 -0.660910 9.838284
v 6.395500 -0.785548 6.454610
v 2.755501 -0.719601 6.771582
v 5.509803 -0.614912 15.080284
v 9.374743 -0.859034 14.892945
v 10.736242 -0.555687 7.446087
v 1.429310 -0.555668 14.097254
v 5.241764 -0.563272 13.909915
v 4.621656 -0.640206 10.513147
v 2.412340 -0.928892 9.737341
v 4.358216 -0.715713 9.228443
v 3.246301 -0.555668 13.418401
v 8.697276 -0.720232 11.252087
v 6.602297 -0.555668 10.890326
v 8.419289 -0.555668 10.211473
v 7.436259 -0.756419 14.538157
v 6.993728 -0.900802 13.231062
v 5.988473 -0.681584 12.862995
v 6.763335 -0.653766 11.943745
v 6.251765 -0.757857 14.155674
v 8.266748 -0.697870 9.166551
v 7.093813 -0.832669 8.946764
v 8.038806 -0.957625 8.046227
v 7.371799 -0.615258 10.075246
v 10.236282 -0.555668 9.532619
v 9.188792 -0.555668 9.286862
v 9.958294 -0.555668 8.362251
v 9.466780 -0.556119 10.399159
v 3.071933 -0.584570 12.351649
v 1.920825 -0.719517 12.131890
v 2.843989 -0.844325 11.231326
v 2.198812 -0.555668 13.172643
v 3.951344 -0.585375 7.954302
v 2.903855 -0.555705 7.795706
v 3.673358 -0.555668 6.887706
v 3.181842 -0.757134 8.845820
v 5.921576 -0.694243 8.549589
v 5.100179 -0.572768 8.303832
v 5.653537 -0.642603 7.379221
v 5.205339 -0.556347 9.474200
v 5.063293 -0.555668 12.739547
v 4.015804 -0.555668 12.493789
v 4.785306 -0.555668 11.569180
v 4.293791 -0.555668 13.664158
v 9.253252 -0.882525 13.883600
v 8.205761 -0.928177 13.646637
v 8.975263 -0.937643 12.380569
v 8.483748 -0.710766 14.775118
v 7.960004 -0.733593 14.656639
v 8.451518 -0.914816 12.262089
v 9.499008 -0.960469 12.499049
v 3.770046 -0.555668 13.541279
v 4.261561 -0.555668 11.446300
v 5.309051 -0.555668 11.692057
v 4.863216 -0.618420 9.351320
v 5.201516 -0.555917 7.256343
v 6.158539 -0.739896 7.502100
v 2.658098 -0.734307 8.727340
v 3.256904 -0.603633 6.872118
v 4.197103 -0.555668 7.010585
v 1.675066 -0.555668 13.049764
v 2.166582 -0.914102 11.121889
v 3.345392 -0.728357 11.331861
v 8.943033 -0.555668 10.334352
v 9.543013 -0.609720 8.347836
v 10.402077 -0.556514 8.485130
v 6.848056 -0.638084 9.956764
v 7.168540 -0.934480 7.747858
v 8.540209 -0.841657 8.146763
v 5.746765 -0.660564 14.032795
v 6.308263 -0.556288 11.889539
v 7.264738 -0.769734 12.044281
v 6.912514 -0.779245 14.419676
v 7.984027 -0.557678 10.177078
v 9.990524 -0.571300 10.479048
v 2.722557 -0.555668 13.295522
v 3.705587 -0.779960 8.964301
v 5.684614 -0.648590 9.597079
v 4.817534 -0.555668 13.787037
v 8.869741 -0.761742 14.770067
v 3.326751 -1.056156 2.720274
v -1.438905 -0.555668 6.642813
v 7.093635 -0.920049 7.485930
v 2.483634 -0.832163 11.547194
v 5.288068 -0.555668 5.103149
v 0.522364 -0.767453 8.899384
v 4.461531 -0.912205 4.065834
v 0.827984 -0.713899 4.681544
v 1.502999 -0.988774 10.048159
v 4.960400 -0.599697 9.447201
v 6.148095 -0.737884 6.294517
v -0.458270 -0.555888 7.798967
v 2.998854 -0.598264 7.158033
v 1.924558 -0.895304 6.023846
v 3.885828 -0.624443 8.157083
v 3.817069 -1.056156 3.315981
v -0.247490 -0.555668 5.662178
v 1.993317 -0.942824 10.972805
v 5.944860 -0.698729 8.466566
v 5.675325 -0.646801 5.698810
v 0.032047 -0.656793 8.324997
v 4.182986 -0.560462 6.170116
v 4.914324 -0.717433 4.624016
v 1.976759 -0.935219 3.700909
v 1.012682 -0.878113 9.473772
v 3.805414 -0.788781 10.558201
v 6.620865 -0.828967 6.890224
v -0.948588 -0.555668 7.238520
v 1.713778 -0.585288 7.953846
v 2.414876 -0.784644 6.598234
v 1.300753 -0.804981 5.277251
v 3.277400 -0.950007 5.053751
v 0.624748 -0.674744 6.853593
v 4.487630 -0.690780 8.851493
v 3.395510 -0.555668 7.660080
v 5.077241 -0.555668 7.275152
v 2.694413 -0.806608 9.102619
v 2.204096 -0.695948 8.528233
v 4.586925 -0.555668 6.679444
v 5.472090 -0.607646 7.870859
v 0.151978 -0.583661 6.257885
v 2.449528 -1.026302 4.296616
v 3.730193 -0.755235 5.611934
v 1.223461 -0.602478 7.543773
v 3.338856 -0.912100 9.832129
vt 0.934420 0.972031
vt 0.984203 0.972031
vt 0.984203 0.997523
vt 0.934420 0.997523
vt 0.934420 0.766211
vt 0.984203 0.766211
vt 0.984203 0.793592
vt 0.934420 0.793592
vt 0.735289 0.766211
vt 0.785071 0.766211
vt 0.785071 0.793592
vt 0.735289 0.793592
vt 0.735289 0.656686
vt 0.785071 0.656686
vt 0.785071 0.684068
vt 0.735289 0.684068
vt 0.934420 0.656686
vt 0.984203 0.656686
vt 0.984203 0.684068
vt 0.934420 0.684068
vt 0.735289 0.972031
vt 0.785071 0.972031
vt 0.785071 0.997523
vt 0.735289 0.997523
vt 0.735289 0.870066
vt 0.785071 0.870066
vt 0.785071 0.895557
vt 0.735289 0.895557
vt 0.934420 0.870066
vt 0.984203 0.870066
vt 0.984203 0.895557
vt 0.934420 0.895557
vt 0.834854 0.870066
vt 0.884637 0.870066
vt 0.884637 0.895557
vt 0.834854 0.895557
vt 0.834854 0.819084
vt 0.884637 0.819084
vt 0.884637 0.844575
vt 0.834854 0.844575
vt 0.934420 0.819084
vt 0.984203 0.819084
vt 0.984203 0.844575
vt 0.934420 0.844575
vt 0.635723 0.870066
vt 0.685506 0.870066
vt 0.685506 0.895557
vt 0.635723 0.895557
vt 0.635723 0.819084
vt 0.685506 0.819084
vt 0.685506 0.844575
vt 0.635723 0.844575
vt 0.735289 0.819084
vt 0.785071 0.819084
vt 0.785071 0.844575
vt 0.735289 0.844575
vt 0.635723 0.972031
vt 0.685506 0.972031
vt 0.685506 0.997523
vt 0.635723 0.997523
vt 0.635723 0.921049
vt 0.685506 0.921049
vt 0.685506 0.946540
vt 0.635723 0.946540
vt 0.735289 0.921049
vt 0.785071 0.921049
vt 0.785071 0.946540
vt 0.735289 0.946540
vt 0.834854 0.656686
vt 0.884637 0.656686
vt 0.884637 0.684068
vt 0.834854 0.684068
vt 0.834854 0.601924
vt 0.884637 0.601924
vt 0.884637 0.629305
vt 0.834854 0.629305
vt 0.934420 0.601924
vt 0.984203 0.601924
vt 0.984203 0.629305
vt 0.934420 0.629305
vt 0.635723 0.656686
vt 0.685506 0.656686
vt 0.685506 0.684068
vt 0.635723 0.684068
vt 0.635723 0.601924
vt 0.685506 0.601924
vt 0.685506 0.629305
vt 0.635723 0.629305
vt 0.735289 0.601924
vt 0.785071 0.601924
vt 0.785071 0.629305
vt 0.735289 0.629305
vt 0.635723 0.766211
vt 0.685506 0.766211
vt 0.685506 0.793592
vt 0.635723 0.793592
vt 0.635723 0.711449
vt 0.685506 0.711449
vt 0.685506 0.738830
vt 0.635723 0.738830
vt 0.735289 0.711449
vt 0.785071 0.711449
vt 0.785071 0.738830
vt 0.735289 0.738830
vt 0.834854 0.766211
vt 0.884637 0.766211
vt 0.884637 0.793592
vt 0.834854 0.793592
vt 0.834854 0.711449
vt 0.884637 0.711449
vt 0.884637 0.738830
vt 0.834854 0.738830
vt 0.934420 0.711449
vt 0.984203 0.711449
vt 0.984203 0.738830
vt 0.934420 0.738830
vt 0.834854 0.972031
vt 0.884637 0.972031
vt 0.884637 0.997523
vt 0.834854 0.997523
vt 0.834854 0.921049
vt 0.884637 0.921049
vt 0.884637 0.946540
vt 0.834854 0.946540
vt 0.934420 0.921049
vt 0.984203 0.921049
vt 0.984203 0.946540
vt 0.934420 0.946540
vt 0.585940 0.711449
vt 0.585940 0.738830
vt 0.585940 0.684068
vt 0.585940 0.766211
vt 0.585940 0.793592
vt 0.685506 0.574543
vt 0.735289 0.574543
vt 0.785071 0.574543
vt 0.585940 0.601924
vt 0.585940 0.629305
vt 0.585940 0.574543
vt 0.635723 0.574543
vt 0.585940 0.656686
vt 0.884637 0.574543
vt 0.934420 0.574543
vt 0.984203 0.574543
vt 0.834854 0.574543
vt 0.585940 0.921049
vt 0.585940 0.946540
vt 0.585940 0.895557
vt 0.585940 0.972031
vt 0.585940 0.997523
vt 0.585940 0.819084
vt 0.585940 0.844575
vt 0.585940 0.870066
vt 0.884637 0.946540
vt 0.984203 0.946540
vt 0.984203 0.997523
vt 0.884637 0.997523
vt 0.884637 0.738830
vt 0.984203 0.738830
vt 0.984203 0.793592
vt 0.884637 0.793592
vt 0.685506 0.738830
vt 0.785071 0.738830
vt 0.785071 0.793592
vt 0.685506 0.793592
vt 0.685506 0.629305
vt 0.785071 0.629305
vt 0.785071 0.684068
vt 0.685506 0.684068
vt 0.884637 0.629305
vt 0.984203 0.629305
vt 0.984203 0.684068
vt 0.884637 0.684068
vt 0.685506 0.946540
vt 0.785071 0.946540
vt 0.785071 0.997523
vt 0.685506 0.997523
vt 0.685506 0.844575
vt 0.785071 0.844575
vt 0.785071 0.895557
vt 0.685506 0.895557
vt 0.884637 0.844575
vt 0.984203 0.844575
vt 0.984203 0.895557
vt 0.884637 0.895557
vt 0.585940 0.844575
vt 0.585940 0.895557
vt 0.585940 0.793592
vt 0.585940 0.946540
vt 0.585940 0.997523
vt 0.785071 0.574543
vt 0.884637 0.574543
vt 0.984203 0.574543
vt 0.585940 0.629305
vt 0.585940 0.684068
vt 0.585940 0.574543
vt 0.685506 0.574543
vt 0.585940 0.738830
vn 0.1889 0.9820 -0.0017
vn 0.0085 1.0000 -0.0020
vn 0.0394 0.9950 -0.0923
vn -0.1490 0.9883 0.0332
vn 0.0000 1.0000 -0.0000
vn 0.0000 0.9819 0.1892
vn 0.0460 0.9897 0.1355
vn 0.0000 0.9819 -0.1892
vn 0.0991 0.9907 0.0932
vn 0.1690 0.9705 0.1719
vn 0.1009 0.9923 -0.0725
vn -0.1859 0.9648 -0.1859
vn 0.0316 0.9940 -0.1048
vn -0.0041 0.9970 -0.0767
vn 0.1542 0.9880 0.0077
vn -0.0512 0.9978 -0.0426
vn -0.0097 0.9835 0.1805
vn -0.1354 0.9803 -0.1438
vn -0.0418 0.9829 -0.1791
vn 0.0111 0.9989 0.0465
vn -0.0416 0.9985 -0.0352
vn 0.1892 0.9819 0.0000
vn 0.1400 0.9901 0.0090
vn -0.1834 0.9828 -0.0237
vn 0.0093 0.9999 0.0077
vn 0.0550 0.9974 -0.0459
vn 0.0015 1.0000 -0.0066
vn 0.0718 0.9900 -0.1213
vn 0.0008 0.9821 -0.1885
vn -0.0057 0.9997 0.0251
vn 0.0087 0.9992 -0.0382
vn -0.0782 0.9946 -0.0675
vn -0.1476 0.9770 -0.1540
vn -0.0538 0.9976 -0.0447
vn -0.0540 0.9985 -0.0092
vn -0.1313 0.9902 0.0478
vn -0.2072 0.9782 -0.0150
vn 0.1888 0.9820 0.0001
vn 0.0417 0.9991 -0.0082
vn -0.0407 0.9988 0.0278
vn -0.0007 0.9821 0.1886
vn -0.0031 0.9827 0.1853
vn -0.1540 0.9751 -0.1593
vn -0.0963 0.9849 -0.1437
vn -0.0722 0.9956 -0.0601
vn 0.0163 0.9996 0.0236
vn 0.0152 0.9871 -0.1595
vn 0.0103 0.9836 -0.1799
vn -0.0003 1.0000 -0.0003
vn -0.0299 0.9984 -0.0479
vn -0.0013 1.0000 0.0056
vn -0.1714 0.9727 -0.1564
vn -0.1368 0.9844 -0.1110
vn -0.1614 0.9681 -0.1916
vn 0.0004 1.0000 0.0003
vn -0.0247 0.9995 -0.0205
vn -0.0154 0.9870 0.1602
vn -0.1599 0.9734 -0.1643
vn -0.1328 0.9810 -0.1416
vn 0.1784 0.9823 0.0565
vn -0.0821 0.9942 -0.0697
vn 0.0009 1.0000 -0.0002
vn 0.0607 0.9886 -0.1380
vn 0.0013 0.9950 -0.0999
vn 0.0769 0.9956 -0.0528
vn 0.1327 0.9901 -0.0466
vn -0.1112 0.9861 -0.1236
vn -0.1581 0.9685 -0.1924
vn 0.2076 0.9781 0.0154
vn 0.2003 0.9792 0.0322
vn 0.1665 0.9860 0.0054
vn 0.0845 0.9932 0.0796
vn 0.0005 1.0000 0.0004
vn 0.0994 0.9896 0.1041
vn 0.1146 0.9747 0.1918
vn 0.1757 0.9683 0.1774
vn 0.1715 0.9728 0.1560
vn 0.0676 0.9889 -0.1321
vn 0.1198 0.9912 -0.0571
vn 0.0471 0.9876 -0.1496
vn -0.1072 0.9871 -0.1187
vn -0.1010 0.9769 -0.1883
vn 0.0114 0.9999 0.0093
vn 0.0718 0.9973 0.0173
vn 0.0123 0.9999 0.0114
vn -0.0002 0.9820 0.1890
vn -0.0272 0.9994 -0.0226
vn -0.0743 0.9907 -0.1139
vn -0.0756 0.9892 0.1253
vn -0.0952 0.9895 0.1085
vn 0.1145 0.9915 -0.0614
vn 0.1891 0.9820 0.0000
vn 0.0999 0.9945 -0.0304
vn 0.0201 0.9998 0.0034
vn 0.1408 0.9892 -0.0400
vn 0.0490 0.9878 -0.1480
vn 0.1659 0.9859 -0.0199
vn -0.1068 0.9893 -0.0994
vn -0.0176 0.9936 0.1118
vn -0.1659 0.9701 -0.1769
vn 0.0668 0.9962 -0.0552
vn 0.0787 0.9968 0.0132
vn 0.0045 1.0000 -0.0036
vn 0.0119 0.9986 0.0521
vn -0.0046 0.9856 0.1692
vn -0.0057 0.9977 0.0678
vn 0.1123 0.9936 -0.0148
vn 0.0671 0.9973 0.0299
vn -0.0330 0.9992 -0.0207
vn 0.1725 0.9850 -0.0074
vn 0.0052 0.9962 0.0873
vn 0.1722 0.9850 -0.0075
vn 0.1553 0.9877 -0.0150
vn 0.0197 0.9998 0.0088
vn -0.0657 0.9945 -0.0812
vn 0.0697 0.9974 0.0199
vn -0.1841 0.9653 -0.1851
vn -0.1144 0.9790 -0.1687
vn -0.0381 0.9856 -0.1647
vn 0.0357 0.9842 -0.1731
vn 0.0275 0.9996 -0.0011
vn -0.1940 0.9808 -0.0212
vn -0.0419 0.9869 0.1558
vn -0.0346 0.9976 0.0597
s off
f 153/1/1 48/2/1 4/3/1 78/4/1
f 152/5/2 51/6/2 6/7/2 81/8/2
f 151/9/3 60/10/3 13/11/3 74/12/3
f 150/13/4 61/14/4 14/15/4 84/16/4
f 149/17/5 58/18/5 12/19/5 85/20/5
f 148/21/6 64/22/6 10/23/6 71/24/6
f 147/25/7 65/26/7 15/27/7 88/28/7
f 146/29/8 55/30/8 9/31/8 89/32/8
f 145/33/9 90/34/9 37/35/9 67/36/9
f 144/37/10 91/38/10 38/39/10 92/40/10
f 143/41/11 77/42/11 25/43/11 93/44/11
f 142/45/12 94/46/12 36/47/12 66/48/12
f 141/49/13 95/50/13 39/51/13 96/52/13
f 140/53/14 87/54/14 35/55/14 97/56/14
f 139/57/15 98/58/15 19/59/15 49/60/15
f 138/61/16 99/62/16 40/63/16 100/64/16
f 137/65/17 86/66/17 34/67/17 101/68/17
f 136/69/18 102/70/18 33/71/18 63/72/18
f 135/73/19 103/74/19 41/75/19 104/76/19
f 134/77/5 80/78/5 28/79/5 105/80/5
f 133/81/20 106/82/20 32/83/20 62/84/20
f 132/85/21 107/86/21 42/87/21 108/88/21
f 131/89/6 83/90/6 31/91/6 109/92/6
f 130/93/22 110/94/22 22/95/22 52/96/22
f 129/97/23 111/98/23 43/99/23 112/100/23
f 128/101/24 82/102/24 30/103/24 113/104/24
f 127/105/25 114/106/25 29/107/25 59/108/25
f 126/109/5 115/110/5 44/111/5 116/112/5
f 125/113/5 73/114/5 21/115/5 117/116/5
f 124/117/26 118/118/26 26/119/26 56/120/26
f 123/121/27 119/122/27 45/123/27 120/124/27
f 122/125/28 70/126/28 18/127/28 121/128/28
f 119/122/8 122/125/8 121/128/8 45/123/8
f 37/35/8 89/32/8 122/125/8 119/122/8
f 89/32/29 9/31/29 70/126/29 122/125/29
f 86/66/6 123/121/6 120/124/6 34/67/6
f 15/27/6 67/36/6 123/121/6 86/66/6
f 67/36/30 37/35/30 119/122/30 123/121/30
f 64/22/6 124/117/6 56/120/6 10/23/6
f 34/67/6 120/124/6 124/117/6 64/22/6
f 120/124/31 45/123/31 118/118/31 124/117/31
f 115/110/5 125/113/5 117/116/5 44/111/5
f 33/71/5 85/20/5 125/113/5 115/110/5
f 85/20/5 12/19/5 73/114/5 125/113/5
f 82/102/32 126/109/32 116/112/32 30/103/32
f 14/15/33 63/72/33 126/109/33 82/102/33
f 63/72/34 33/71/34 115/110/34 126/109/34
f 60/10/5 127/105/5 59/108/5 13/11/5
f 30/103/5 116/112/5 127/105/5 60/10/5
f 116/112/5 44/111/5 114/106/5 127/105/5
f 111/98/35 128/101/35 113/104/35 43/99/35
f 32/83/36 84/16/36 128/101/36 111/98/36
f 84/16/37 14/15/37 82/102/37 128/101/37
f 53/129/38 129/97/38 112/100/38 23/130/38
f 7/131/39 62/84/39 129/97/39 53/129/39
f 62/84/40 32/83/40 111/98/40 129/97/40
f 75/132/22 130/93/22 52/96/22 5/133/22
f 23/130/22 112/100/22 130/93/22 75/132/22
f 112/100/22 43/99/22 110/94/22 130/93/22
f 107/86/41 131/89/41 109/92/41 42/87/41
f 24/134/42 54/135/42 131/89/42 107/86/42
f 54/135/6 8/136/6 83/90/6 131/89/6
f 46/137/43 132/85/43 108/88/43 16/138/43
f 1/139/12 76/140/12 132/85/12 46/137/12
f 76/140/44 24/134/44 107/86/44 132/85/44
f 68/141/5 133/81/5 62/84/5 7/131/5
f 16/138/45 108/88/45 133/81/45 68/141/45
f 108/88/46 42/87/46 106/82/46 133/81/46
f 103/74/47 134/77/47 105/80/47 41/75/47
f 17/142/48 47/143/48 134/77/48 103/74/48
f 47/143/49 2/144/49 80/78/49 134/77/49
f 83/90/50 135/73/50 104/76/50 31/91/50
f 8/136/51 69/145/51 135/73/51 83/90/51
f 69/145/8 17/142/8 103/74/8 135/73/8
f 61/14/52 136/69/52 63/72/52 14/15/52
f 31/91/53 104/76/53 136/69/53 61/14/53
f 104/76/54 41/75/54 102/70/54 136/69/54
f 99/62/55 137/65/55 101/68/55 40/63/55
f 36/47/56 88/28/56 137/65/56 99/62/56
f 88/28/57 15/27/57 86/66/57 137/65/57
f 57/146/58 138/61/58 100/64/58 27/147/58
f 11/148/12 66/48/12 138/61/12 57/146/12
f 66/48/59 36/47/59 99/62/59 138/61/59
f 79/149/60 139/57/60 49/60/60 3/150/60
f 27/147/61 100/64/61 139/57/61 79/149/61
f 100/64/62 40/63/62 98/58/62 139/57/62
f 95/50/8 140/53/8 97/56/8 39/51/8
f 22/95/63 74/12/63 140/53/63 95/50/63
f 74/12/64 13/11/64 87/54/64 140/53/64
f 50/151/65 141/49/65 96/52/65 20/152/65
f 5/133/22 52/96/22 141/49/22 50/151/22
f 52/96/66 22/95/66 95/50/66 141/49/66
f 72/153/12 142/45/12 66/48/12 11/148/12
f 20/152/67 96/52/67 142/45/67 72/153/67
f 96/52/68 39/51/68 94/46/68 142/45/68
f 91/38/69 143/41/69 93/44/69 38/39/69
f 29/107/70 81/8/70 143/41/70 91/38/70
f 81/8/71 6/7/71 77/42/71 143/41/71
f 87/54/72 144/37/72 92/40/72 35/55/72
f 13/11/73 59/108/73 144/37/73 87/54/73
f 59/108/74 29/107/74 91/38/74 144/37/74
f 65/26/75 145/33/75 67/36/75 15/27/75
f 35/55/76 92/40/76 145/33/76 65/26/76
f 92/40/77 38/39/77 90/34/77 145/33/77
f 90/34/78 146/29/78 89/32/78 37/35/78
f 38/39/79 93/44/79 146/29/79 90/34/79
f 93/44/80 25/43/80 55/30/80 146/29/80
f 94/46/81 147/25/81 88/28/81 36/47/81
f 39/51/82 97/56/82 147/25/82 94/46/82
f 97/56/83 35/55/83 65/26/83 147/25/83
f 98/58/84 148/21/84 71/24/84 19/59/84
f 40/63/85 101/68/85 148/21/85 98/58/85
f 101/68/86 34/67/86 64/22/86 148/21/86
f 102/70/87 149/17/87 85/20/87 33/71/87
f 41/75/88 105/80/88 149/17/88 102/70/88
f 105/80/5 28/79/5 58/18/5 149/17/5
f 106/82/89 150/13/89 84/16/89 32/83/89
f 42/87/6 109/92/6 150/13/6 106/82/6
f 109/92/90 31/91/90 61/14/90 150/13/90
f 110/94/91 151/9/91 74/12/91 22/95/91
f 43/99/92 113/104/92 151/9/92 110/94/92
f 113/104/93 30/103/93 60/10/93 151/9/93
f 114/106/94 152/5/94 81/8/94 29/107/94
f 44/111/5 117/116/5 152/5/5 114/106/5
f 117/116/5 21/115/5 51/6/5 152/5/5
f 118/118/95 153/1/95 78/4/95 26/119/95
f 45/123/96 121/128/96 153/1/96 118/118/96
f 121/128/97 18/127/97 48/2/97 153/1/97
f 198/154/98 171/155/98 157/156/98 179/157/98
f 197/158/99 174/159/99 159/160/99 182/161/99
f 196/162/100 183/163/100 166/164/100 175/165/100
f 195/166/101 184/167/101 167/168/101 185/169/101
f 194/170/102 181/171/102 165/172/102 186/173/102
f 193/174/103 187/175/103 163/176/103 172/177/103
f 192/178/104 188/179/104 168/180/104 189/181/104
f 191/182/6 178/183/6 162/184/6 190/185/6
f 188/179/105 191/182/105 190/185/105 168/180/105
f 166/164/106 182/161/106 191/182/106 188/179/106
f 182/161/6 159/160/6 178/183/6 191/182/6
f 173/186/107 192/178/107 189/181/107 164/187/107
f 158/188/108 175/165/108 192/178/108 173/186/108
f 175/165/109 166/164/109 188/179/109 192/178/109
f 180/189/22 193/174/22 172/177/22 156/190/22
f 164/187/110 189/181/110 193/174/110 180/189/110
f 189/181/111 168/180/111 187/175/111 193/174/111
f 184/167/112 194/170/112 186/173/112 167/168/112
f 161/191/113 170/192/113 194/170/113 184/167/113
f 170/192/114 155/193/114 181/171/114 194/170/114
f 169/194/115 195/166/115 185/169/115 160/195/115
f 154/196/116 177/197/116 195/166/116 169/194/116
f 177/197/22 161/191/22 184/167/22 195/166/22
f 176/198/117 196/162/117 175/165/117 158/188/117
f 160/195/12 185/169/12 196/162/12 176/198/12
f 185/169/118 167/168/118 183/163/118 196/162/118
f 183/163/119 197/158/119 182/161/119 166/164/119
f 167/168/120 186/173/120 197/158/120 183/163/120
f 186/173/121 165/172/121 174/159/121 197/158/121
f 187/175/122 198/154/122 179/157/122 163/176/122
f 168/180/123 190/185/123 198/154/123 187/175/123
f 190/185/124 162/184/124 171/155/124 198/154/124
