# Blender v3.3.0 OBJ File: 'PropsDeepUnder.blend'
# www.blender.org
o BloodSplash01.009_Plane.099
v -17.818489 0.032997 17.106585
v -9.081848 0.032997 21.611790
v -13.313284 0.032997 8.369944
v -4.576643 0.032997 12.875149
v -15.565886 0.032997 12.738264
v -6.829246 0.032997 17.243469
vt 0.285340 0.764614
vt 0.554049 0.764614
vt 0.554049 0.922609
vt 0.285340 0.922609
vt 0.285340 0.606619
vt 0.554049 0.606619
vn 0.0000 1.0000 0.0000
s off
f 5/1/1 6/2/1 4/3/1 3/4/1
f 1/5/1 2/6/1 6/2/1 5/1/1
o BloodSplash01.010_Plane.100
v -3.787038 0.032997 -14.427444
v -7.108745 0.032997 -21.412708
v -10.772302 0.032997 -11.105737
v -14.094008 0.032997 -18.091000
v -7.279670 0.032997 -12.766590
v -10.601377 0.032997 -19.751854
vt 0.285340 0.764614
vt 0.554049 0.764614
vt 0.554049 0.922609
vt 0.285340 0.922609
vt 0.285340 0.606619
vt 0.554049 0.606619
vn 0.0000 1.0000 0.0000
s off
f 11/7/2 12/8/2 10/9/2 9/10/2
f 7/11/2 8/12/2 12/8/2 11/7/2
o BloodSplash01.011_Plane.101
v -15.023140 0.032997 -20.700647
v -22.273270 0.032997 -12.748711
v -7.071204 0.032997 -13.450520
v -14.321333 0.032997 -5.498583
v -11.047173 0.032997 -17.075583
v -18.297300 0.032997 -9.123647
vt 0.585940 0.793592
vt 0.984203 0.793592
vt 0.984203 0.997523
vt 0.585940 0.997523
vt 0.585940 0.574543
vt 0.984203 0.574543
vn 0.0000 1.0000 0.0000
s off
f 17/13/3 18/14/3 16/15/3 15/16/3
f 13/17/3 14/18/3 18/14/3 17/13/3
