# Blender v3.3.0 OBJ File: 'PropsDeepUnder.blend'
# www.blender.org
o BloodSplashCreatureTestRoom_Plane.007
v 3.468358 2.501902 -0.961278
v -2.372661 2.501902 -1.270229
v 3.337658 2.501902 1.509730
v -2.503361 2.501902 1.200778
v 1.082084 2.514657 -0.017311
v 3.246018 2.514657 1.045737
v 2.145131 2.514657 -2.181245
v 4.309065 2.514657 -1.118197
v 1.613608 2.514657 -1.099278
v 3.777542 2.514657 -0.036230
v 5.806383 0.032997 -19.554794
v -6.374506 0.032997 -13.866289
v 11.494888 0.032997 -7.373905
v -0.686001 0.032997 -1.685400
v 8.650636 0.032997 -13.464350
v -3.530254 0.032997 -7.775845
v -7.769364 0.032997 -0.386531
v 6.089161 0.032997 6.421567
v -0.961266 0.032997 -14.245055
v 12.897259 0.032997 -7.436957
v -4.365315 0.032997 -7.315793
v 9.493210 0.032997 -0.507695
vt 0.229161 0.499076
vt 0.229161 0.979526
vt 0.027281 0.979526
vt 0.027281 0.499076
vt 0.285340 0.764614
vt 0.554049 0.764614
vt 0.554049 0.922609
vt 0.285340 0.922609
vt 0.285340 0.606619
vt 0.554049 0.606619
vt 0.285340 0.764614
vt 0.554049 0.764614
vt 0.554049 0.922609
vt 0.285340 0.922609
vt 0.285340 0.606619
vt 0.554049 0.606619
vt 0.285340 0.764614
vt 0.554049 0.764614
vt 0.554049 0.922609
vt 0.285340 0.922609
vt 0.285340 0.606619
vt 0.554049 0.606619
vn 0.0000 1.0000 0.0000
s off
f 1/1/1 2/2/1 4/3/1 3/4/1
f 9/5/1 10/6/1 8/7/1 7/8/1
f 5/9/1 6/10/1 10/6/1 9/5/1
f 15/11/1 16/12/1 14/13/1 13/14/1
f 11/15/1 12/16/1 16/12/1 15/11/1
f 21/17/1 22/18/1 20/19/1 19/20/1
f 17/21/1 18/22/1 22/18/1 21/17/1
