# Blender v3.3.0 OBJ File: 'PropsDeepUnder.blend'
# www.blender.org
o Chair.012_Cube.028
v -4.998085 0.000257 -13.828806
v -5.652756 0.000257 -12.787922
v -5.652756 0.959526 -12.787922
v -6.038969 0.000257 -14.483479
v -6.693640 0.000257 -13.442595
v -6.693640 0.959526 -13.442595
v -5.577669 0.000257 -12.907307
v -6.618553 0.000257 -13.561978
v -5.079377 0.000257 -13.699556
v -6.120262 0.959526 -14.354228
v -5.079377 0.959526 -13.699556
v -6.120262 0.000257 -14.354228
v -4.998085 0.818047 -13.828806
v -5.652756 0.818047 -12.787922
v -6.693640 0.818047 -13.442595
v -6.038969 0.818047 -14.483479
v -6.618553 0.818047 -13.561978
v -5.577669 0.818047 -12.907307
v -5.079377 0.818047 -13.699556
v -6.120262 0.818047 -14.354228
v -5.577669 2.280768 -12.907307
v -5.652756 2.280768 -12.787922
v -6.693640 2.280768 -13.442595
v -6.618553 2.280768 -13.561978
v -4.998085 0.832093 -13.828806
v -5.065930 0.959526 -13.720936
v -5.007174 0.895809 -13.814355
v -5.032007 0.942453 -13.774871
v -6.106814 0.959526 -14.375607
v -6.038969 0.832093 -14.483479
v -6.072891 0.942453 -14.429543
v -6.048058 0.895809 -14.469027
v -5.473583 0.959526 -13.072796
v -5.577669 1.155026 -12.907307
v -5.652740 0.959526 -12.787949
v -5.577669 0.818078 -12.907307
v -5.525626 0.985718 -12.990051
v -5.563724 1.057276 -12.929478
v -6.618553 1.155026 -13.561978
v -6.514467 0.959526 -13.727468
v -6.618553 0.818078 -13.561978
v -6.693624 0.959526 -13.442620
v -6.604608 1.057276 -13.584149
v -6.566510 0.985718 -13.644723
vt 0.228422 0.937632
vt 0.244030 0.937632
vt 0.244030 0.947031
vt 0.228422 0.947031
vt 0.226626 0.917752
vt 0.228422 0.917752
vt 0.228422 0.933360
vt 0.226626 0.933360
vt 0.244030 0.947351
vt 0.228422 0.947351
vt 0.197205 0.947031
vt 0.212813 0.947031
vt 0.212813 0.948969
vt 0.197205 0.948969
vt 0.226626 0.947031
vt 0.228205 0.948160
vt 0.227613 0.948752
vt 0.226804 0.948969
vt 0.226626 0.948969
vt 0.226626 0.935151
vt 0.226626 0.935151
vt 0.197205 0.933360
vt 0.212813 0.933360
vt 0.212813 0.935151
vt 0.197205 0.935151
vt 0.228422 0.935151
vt 0.228422 0.933361
vt 0.228422 0.933360
vt 0.228422 0.935151
vt 0.226804 0.964577
vt 0.226626 0.964577
vt 0.244030 0.935151
vt 0.244030 0.935151
vt 0.226626 0.915962
vt 0.212813 0.915962
vt 0.226626 0.904082
vt 0.212813 0.902144
vt 0.226626 0.902144
vt 0.212813 0.904082
vt 0.212813 0.964577
vt 0.212813 0.917752
vt 0.244030 0.933360
vt 0.226626 0.915962
vt 0.228422 0.917752
vt 0.228422 0.917752
vt 0.228422 0.904082
vt 0.228422 0.913480
vt 0.244030 0.948969
vt 0.228422 0.948969
vt 0.228422 0.964577
vt 0.227613 0.964577
vt 0.227613 0.948969
vt 0.226804 0.902144
vt 0.227613 0.902360
vt 0.228205 0.902952
vt 0.228422 0.903761
vt 0.228422 0.914721
vt 0.228422 0.915629
vt 0.228422 0.915962
vt 0.228422 0.915962
vt 0.228422 0.935151
vt 0.228422 0.935151
vt 0.228422 0.935151
vt 0.228422 0.936391
vt 0.244030 0.936391
vt 0.244030 0.935151
vt 0.228422 0.915962
vn 0.0000 1.0000 0.0000
vn -0.5324 0.0000 0.8465
vn 0.0000 -1.0000 -0.0000
vn -0.8465 0.0000 -0.5324
vn 0.5324 0.0000 -0.8465
vn 0.8465 0.0000 0.5324
vn 0.1378 0.9659 -0.2191
vn 0.3765 0.7071 -0.5986
vn 0.5143 0.2588 -0.8176
s off
f 40/1/1 33/2/1 11/3/1 10/4/1
f 14/5/2 3/6/2 6/7/2 15/8/2
f 10/4/1 11/3/1 26/9/1 29/10/1
f 9/11/3 12/12/3 4/13/3 1/14/3
f 20/15/4 10/4/4 29/10/4 31/16/4 32/17/4 30/18/4 16/19/4
f 17/20/4 41/21/4 40/1/4 10/4/4 20/15/4
f 2/22/3 5/23/3 8/24/3 7/25/3
f 39/26/4 42/27/4 6/7/4 23/28/4 24/29/4
f 15/8/4 6/7/4 42/27/4 41/21/4 17/20/4
f 16/19/5 30/18/5 25/30/5 13/31/5
f 34/32/5 39/26/5 24/29/5 21/33/5
f 18/34/5 7/35/5 8/24/5 17/20/5
f 17/20/3 20/15/3 19/36/3 18/34/3
f 1/37/6 13/38/6 19/36/6 9/39/6
f 19/36/2 20/15/2 12/12/2 9/39/2
f 5/23/4 15/8/4 17/20/4 8/24/4
f 4/13/5 16/19/5 13/31/5 1/40/5
f 12/12/4 20/15/4 16/19/4 4/13/4
f 2/41/2 14/5/2 15/8/2 5/23/2
f 7/35/6 18/34/6 14/5/6 2/41/6
f 23/28/1 22/42/1 21/33/1 24/29/1
f 18/34/6 36/43/6 35/44/6 3/6/6 14/5/6
f 6/7/2 3/6/2 22/45/2 23/28/2
f 19/36/6 11/46/6 33/47/6 36/43/6 18/34/6
f 29/10/7 26/9/7 28/48/7 31/49/7
f 31/49/8 28/50/8 27/51/8 32/52/8
f 32/52/9 27/51/9 25/30/9 30/18/9
f 13/38/6 25/53/6 27/54/6 28/55/6 26/56/6 11/46/6 19/36/6
f 33/47/6 37/57/6 38/58/6 34/59/6 35/60/6 36/43/6
f 39/26/4 43/61/4 44/62/4 40/63/4 41/21/4 42/27/4
f 33/2/7 40/1/7 44/64/7 37/65/7
f 37/65/8 44/64/8 43/61/8 38/66/8
f 38/66/9 43/61/9 39/26/9 34/32/9
f 3/6/6 35/44/6 34/59/6 21/67/6 22/45/6
