# Blender v3.3.0 OBJ File: 'PropsDeepUnder.blend'
# www.blender.org
o Cube.070_Cube.101
v -18.773289 -0.002103 -14.190785
v -18.773289 1.615797 -14.190785
v -13.925027 -0.002103 -19.071339
v -13.925027 1.615797 -19.071339
v -18.773289 -0.002103 -16.784323
v -16.518564 -0.002103 -19.071339
v -16.518564 1.615797 -19.071339
v -18.773289 1.615797 -16.784323
v -13.925027 -0.002103 -15.831969
v -15.566211 -0.002103 -14.190785
v -15.566211 1.615797 -14.190785
v -13.925027 1.615797 -15.831969
v -18.773289 -0.002103 -7.607285
v -18.773289 1.615797 -7.607285
v -6.848622 1.615797 -19.071339
v -6.848622 -0.002103 -19.071339
v -15.566211 1.615797 -7.607285
v -15.566211 -0.002103 -7.607285
v -6.848622 -0.002103 -15.831969
v -6.848622 1.615797 -15.831969
vt 0.071729 0.901520
vt 0.100271 0.901520
vt 0.100271 0.919000
vt 0.071729 0.919000
vt 0.117751 0.919000
vt 0.128812 0.930061
vt 0.128812 0.947541
vt 0.111332 0.947541
vt 0.100271 0.936480
vt 0.071729 0.936480
vt 0.071729 0.919000
vt 0.071729 0.936480
vt 0.071729 0.861917
vt 0.100271 0.861917
vt 0.100271 0.879397
vt 0.071729 0.879397
vt 0.100271 0.936480
vt 0.100271 0.919000
vt 0.100271 0.958603
vt 0.071729 0.958603
vt 0.043188 0.930061
vt 0.054249 0.919000
vt 0.060668 0.947541
vt 0.043188 0.947541
vt 0.071729 0.958603
vt 0.100271 0.958603
vt 0.100271 0.976083
vt 0.071729 0.976083
vt 0.128812 0.947541
vt 0.111332 0.947541
vt 0.060668 0.947541
vt 0.043188 0.947541
vt 0.071729 0.861917
vt 0.100271 0.861917
vn 0.0000 0.0000 -1.0000
vn 0.0000 1.0000 -0.0000
vn 0.0000 -1.0000 0.0000
vn -1.0000 0.0000 0.0000
vn -0.7121 0.0000 -0.7021
vn 0.7071 0.0000 0.7071
vn 0.0000 0.0000 1.0000
vn 1.0000 0.0000 0.0000
s off
f 6/1/1 7/2/1 4/3/1 3/4/1
f 4/3/2 7/5/2 8/6/2 2/7/2 11/8/2 12/9/2
f 9/10/3 3/4/3 16/11/3 19/12/3
f 1/13/4 2/14/4 8/15/4 5/16/4
f 4/3/2 12/9/2 20/17/2 15/18/2
f 7/2/5 6/1/5 5/16/5 8/15/5
f 11/19/6 10/20/6 9/10/6 12/9/6
f 5/21/3 6/22/3 3/4/3 9/10/3 10/23/3 1/24/3
f 18/25/7 17/26/7 14/27/7 13/28/7
f 16/11/8 15/18/8 20/17/8 19/12/8
f 3/4/1 4/3/1 15/18/1 16/11/1
f 11/8/2 2/7/2 14/29/2 17/30/2
f 1/24/3 10/23/3 18/31/3 13/32/3
f 2/14/4 1/13/4 13/33/4 14/34/4
f 12/9/7 9/10/7 19/12/7 20/17/7
f 10/20/8 11/19/8 17/26/8 18/25/8
o Cube.071_Cube.102
v 14.190786 -0.002103 -18.773289
v 14.190786 1.615797 -18.773289
v 19.071339 -0.002103 -13.925026
v 19.071339 1.615797 -13.925026
v 16.784323 -0.002103 -18.773289
v 19.071339 -0.002103 -16.518564
v 19.071339 1.615797 -16.518564
v 16.784323 1.615797 -18.773289
v 15.831970 -0.002103 -13.925026
v 14.190786 -0.002103 -15.566210
v 14.190786 1.615797 -15.566210
v 15.831970 1.615797 -13.925026
v 7.607285 -0.002103 -18.773289
v 7.607285 1.615797 -18.773289
v 19.071339 1.615797 -6.848621
v 19.071339 -0.002103 -6.848621
v 7.607285 1.615797 -15.566211
v 7.607285 -0.002103 -15.566211
v 15.831969 -0.002103 -6.848622
v 15.831969 1.615797 -6.848622
vt 0.071729 0.901520
vt 0.100271 0.901520
vt 0.100271 0.919000
vt 0.071729 0.919000
vt 0.117751 0.919000
vt 0.128812 0.930061
vt 0.128812 0.947541
vt 0.111332 0.947541
vt 0.100271 0.936480
vt 0.071729 0.936480
vt 0.071729 0.919000
vt 0.071729 0.936480
vt 0.071729 0.861917
vt 0.100271 0.861917
vt 0.100271 0.879397
vt 0.071729 0.879397
vt 0.100271 0.936480
vt 0.100271 0.919000
vt 0.100271 0.958603
vt 0.071729 0.958603
vt 0.043188 0.930061
vt 0.054249 0.919000
vt 0.060668 0.947541
vt 0.043188 0.947541
vt 0.071729 0.958603
vt 0.100271 0.958603
vt 0.100271 0.976083
vt 0.071729 0.976083
vt 0.128812 0.947541
vt 0.111332 0.947541
vt 0.060668 0.947541
vt 0.043188 0.947541
vt 0.071729 0.861917
vt 0.100271 0.861917
vn 1.0000 0.0000 0.0000
vn 0.0000 1.0000 0.0000
vn 0.0000 -1.0000 0.0000
vn 0.0000 0.0000 -1.0000
vn 0.7021 0.0000 -0.7121
vn -0.7071 0.0000 0.7071
vn -1.0000 0.0000 -0.0000
vn -0.0000 0.0000 1.0000
s off
f 26/35/9 27/36/9 24/37/9 23/38/9
f 24/37/10 27/39/10 28/40/10 22/41/10 31/42/10 32/43/10
f 29/44/11 23/38/11 36/45/11 39/46/11
f 21/47/12 22/48/12 28/49/12 25/50/12
f 24/37/10 32/43/10 40/51/10 35/52/10
f 27/36/13 26/35/13 25/50/13 28/49/13
f 31/53/14 30/54/14 29/44/14 32/43/14
f 25/55/11 26/56/11 23/38/11 29/44/11 30/57/11 21/58/11
f 38/59/15 37/60/15 34/61/15 33/62/15
f 36/45/16 35/52/16 40/51/16 39/46/16
f 23/38/9 24/37/9 35/52/9 36/45/9
f 31/42/10 22/41/10 34/63/10 37/64/10
f 21/58/11 30/57/11 38/65/11 33/66/11
f 22/48/12 21/47/12 33/67/12 34/68/12
f 32/43/15 29/44/15 39/46/15 40/51/15
f 30/54/16 31/53/16 37/60/16 38/59/16
