# Blender v3.3.0 OBJ File: 'PropsDeepUnder.blend'
# www.blender.org
o BloodSplash01.013_Plane.008
v 3.241838 0.032997 13.209899
v 17.174252 0.032997 20.394394
v 10.426333 0.032997 -0.722513
v 24.358746 0.032997 6.461982
v 6.834086 0.032997 6.243693
v 20.766499 0.032997 13.428188
vt 0.285340 0.764614
vt 0.554049 0.764614
vt 0.554049 0.922609
vt 0.285340 0.922609
vt 0.285340 0.606619
vt 0.554049 0.606619
vn 0.0000 1.0000 0.0000
s off
f 5/1/1 6/2/1 4/3/1 3/4/1
f 1/5/1 2/6/1 6/2/1 5/1/1
o BloodSplash01.014_Plane.040
v -3.468554 0.032997 -8.786119
v 3.828736 0.032997 -11.350725
v -6.033160 0.032997 -16.083408
v 1.264130 0.032997 -18.648014
v -4.750857 0.032997 -12.434764
v 2.546433 0.032997 -14.999370
vt 0.285340 0.764614
vt 0.554049 0.764614
vt 0.554049 0.922609
vt 0.285340 0.922609
vt 0.285340 0.606619
vt 0.554049 0.606619
vn 0.0000 1.0000 0.0000
s off
f 11/7/2 12/8/2 10/9/2 9/10/2
f 7/11/2 8/12/2 12/8/2 11/7/2
o BloodSplash01.015_Plane.078
v -8.559628 0.032997 -4.594809
v -15.700513 0.032997 -12.644990
v -16.609810 0.032997 2.546077
v -23.750694 0.032997 -5.504105
v -12.584719 0.032997 -1.024366
v -19.725603 0.032997 -9.074547
vt 0.585940 0.793592
vt 0.984203 0.793592
vt 0.984203 0.997523
vt 0.585940 0.997523
vt 0.585940 0.574543
vt 0.984203 0.574543
vn 0.0000 1.0000 0.0000
s off
f 17/13/3 18/14/3 16/15/3 15/16/3
f 13/17/3 14/18/3 18/14/3 17/13/3
o BloodSplash01.016_Plane.082
v -3.599423 0.032997 -13.006315
v -1.733154 0.032997 -5.500006
v 3.906886 0.032997 -14.872585
v 5.773155 0.032997 -7.366276
v 0.153731 0.032997 -13.939450
v 2.020000 0.032997 -6.433141
vt 0.285340 0.764614
vt 0.554049 0.764614
vt 0.554049 0.922609
vt 0.285340 0.922609
vt 0.285340 0.606619
vt 0.554049 0.606619
vn 0.0000 1.0000 0.0000
s off
f 23/19/4 24/20/4 22/21/4 21/22/4
f 19/23/4 20/24/4 24/20/4 23/19/4
