# Blender v3.3.0 OBJ File: 'PropsDeepUnder.blend'
# www.blender.org
o BloodSplash01.012_Plane.173
v -6.406212 0.032997 4.526847
v 3.025880 0.032997 -0.458886
v -11.391946 0.032997 -4.905245
v -1.959854 0.032997 -9.890978
v -8.899078 0.032997 -0.189199
v 0.533013 0.032997 -5.174932
vt 0.285340 0.764614
vt 0.554049 0.764614
vt 0.554049 0.922609
vt 0.285340 0.922609
vt 0.285340 0.606619
vt 0.554049 0.606619
vn 0.0000 1.0000 0.0000
s off
f 5/1/1 6/2/1 4/3/1 3/4/1
f 1/5/1 2/6/1 6/2/1 5/1/1
o BloodSplash01.026_Plane.174
v 1.644385 0.032997 3.217821
v 9.361589 0.032997 2.695915
v 1.122479 0.032997 -4.499384
v 8.839684 0.032997 -5.021290
v 1.383432 0.032997 -0.640782
v 9.100637 0.032997 -1.162687
vt 0.285340 0.764614
vt 0.554049 0.764614
vt 0.554049 0.922609
vt 0.285340 0.922609
vt 0.285340 0.606619
vt 0.554049 0.606619
vn 0.0000 1.0000 0.0000
s off
f 11/7/2 12/8/2 10/9/2 9/10/2
f 7/11/2 8/12/2 12/8/2 11/7/2
o BloodSplash01.027_Plane.175
v 8.557608 0.032997 6.871412
v 7.675886 0.032997 0.370930
v 2.057126 0.032997 7.753133
v 1.175405 0.032997 1.252652
v 5.307367 0.032997 7.312273
v 4.425645 0.032997 0.811791
vt 0.585940 0.793592
vt 0.984203 0.793592
vt 0.984203 0.997523
vt 0.585940 0.997523
vt 0.585940 0.574543
vt 0.984203 0.574543
vn 0.0000 1.0000 -0.0000
s off
f 17/13/3 18/14/3 16/15/3 15/16/3
f 13/17/3 14/18/3 18/14/3 17/13/3
o BloodSplash01.028_Plane.176
v 3.519896 0.032997 -2.333827
v -6.644314 0.032997 -0.822305
v 5.031418 0.032997 7.830383
v -5.132792 0.032997 9.341905
v 4.275657 0.032997 2.748279
v -5.888554 0.032997 4.259799
vt 0.585940 0.793592
vt 0.984203 0.793592
vt 0.984203 0.997523
vt 0.585940 0.997523
vt 0.585940 0.574543
vt 0.984203 0.574543
vn 0.0000 1.0000 0.0000
s off
f 23/19/4 24/20/4 22/21/4 21/22/4
f 19/23/4 20/24/4 24/20/4 23/19/4
