# Blender v3.3.0 OBJ File: 'PropsDeepUnder.blend'
# www.blender.org
o BloodSplash01.021_Plane.043
v 6.748940 0.032997 1.270849
v 19.241650 0.032997 -8.198115
v -2.720024 0.032997 -11.221860
v 9.772685 0.032997 -20.690825
v 2.014458 0.032997 -4.975505
v 14.507168 0.032997 -14.444469
vt 0.285340 0.764614
vt 0.554049 0.764614
vt 0.554049 0.922609
vt 0.285340 0.922609
vt 0.285340 0.606619
vt 0.554049 0.606619
vn 0.0000 1.0000 -0.0000
s off
f 5/1/1 6/2/1 4/3/1 3/4/1
f 1/5/1 2/6/1 6/2/1 5/1/1
o BloodSplash01.022_Plane.144
v 5.875862 0.032997 2.241326
v 13.593067 0.032997 1.719420
v 5.353956 0.032997 -5.475879
v 13.071161 0.032997 -5.997785
v 5.614909 0.032997 -1.617277
v 13.332114 0.032997 -2.139182
vt 0.285340 0.764614
vt 0.554049 0.764614
vt 0.554049 0.922609
vt 0.285340 0.922609
vt 0.285340 0.606619
vt 0.554049 0.606619
vn 0.0000 1.0000 0.0000
s off
f 11/7/2 12/8/2 10/9/2 9/10/2
f 7/11/2 8/12/2 12/8/2 11/7/2
o BloodSplash01.023_Plane.145
v 10.093003 0.032997 17.605579
v 11.528090 0.032997 11.204470
v 3.691892 0.032997 16.170492
v 5.126980 0.032997 9.769382
v 6.892447 0.032997 16.888037
v 8.327536 0.032997 10.486925
vt 0.585940 0.793592
vt 0.984203 0.793592
vt 0.984203 0.997523
vt 0.585940 0.997523
vt 0.585940 0.574543
vt 0.984203 0.574543
vn 0.0000 1.0000 -0.0000
s off
f 17/13/3 18/14/3 16/15/3 15/16/3
f 13/17/3 14/18/3 18/14/3 17/13/3
o BloodSplash01.024_Plane.146
v 6.877183 0.032997 -1.860447
v 6.670294 0.032997 5.871619
v 14.609249 0.032997 -1.653557
v 14.402359 0.032997 6.078508
v 10.743217 0.032997 -1.757002
v 10.536326 0.032997 5.975063
vt 0.285340 0.764614
vt 0.554049 0.764614
vt 0.554049 0.922609
vt 0.285340 0.922609
vt 0.285340 0.606619
vt 0.554049 0.606619
vn 0.0000 1.0000 -0.0000
s off
f 23/19/4 24/20/4 22/21/4 21/22/4
f 19/23/4 20/24/4 24/20/4 23/19/4
o BloodSplash01.025_Plane.147
v 8.939457 0.032997 8.755384
v -1.042073 0.032997 6.313067
v 6.497139 0.032997 18.736916
v -3.484391 0.032997 16.294598
v 7.718298 0.032997 13.746150
v -2.263232 0.032997 11.303832
vt 0.585940 0.793592
vt 0.984203 0.793592
vt 0.984203 0.997523
vt 0.585940 0.997523
vt 0.585940 0.574543
vt 0.984203 0.574543
vn 0.0000 1.0000 0.0000
s off
f 29/25/5 30/26/5 28/27/5 27/28/5
f 25/29/5 26/30/5 30/26/5 29/25/5
